<svg xmlns="http://www.w3.org/2000/svg" xmlns:xlink="http://www.w3.org/1999/xlink" id="Layer_1" width="420.5" height="220" x="0" y="0" baseProfile="tiny" overflow="auto" version="1.2" viewBox="0 0 420.5 220" xml:space="preserve"><switch><g><g><g><g><text font-family="'MyriadPro-Regular'" font-size="12" transform="matrix(1 0 0 1 67.4565 41.022)">S</text><text font-family="'MyriadPro-Regular'" font-size="12" transform="matrix(1 0 0 1 73.4443 41.022)">e</text><text font-family="'MyriadPro-Regular'" font-size="12" transform="matrix(1 0 0 1 79.4565 41.022)">p</text><text font-family="'MyriadPro-Regular'" font-size="12" transform="matrix(1 0 0 1 86.2842 41.022)">e</text><text font-family="'MyriadPro-Regular'" font-size="12" transform="matrix(1 0 0 1 92.2959 41.022)">r</text><text font-family="'MyriadPro-Regular'" font-size="12" transform="matrix(1 0 0 1 96.1602 41.022)">a</text><text font-family="'MyriadPro-Regular'" font-size="12" transform="matrix(1 0 0 1 101.896 41.022)">t</text><text font-family="'MyriadPro-Regular'" font-size="12" transform="matrix(1 0 0 1 105.7959 41.022)">e</text><text font-family="'MyriadPro-Regular'" font-size="12" transform="matrix(1 0 0 1 111.8081 41.022)">d</text><text font-family="'MyriadPro-Regular'" font-size="12" transform="matrix(1 0 0 1 121.1196 41.022)">P</text><text font-family="'MyriadPro-Regular'" font-size="12" transform="matrix(1 0 0 1 127.1919 41.022)">a</text><text font-family="'MyriadPro-Regular'" font-size="12" transform="matrix(1 0 0 1 132.9761 41.022)">n</text><text font-family="'MyriadPro-Regular'" font-size="12" transform="matrix(1 0 0 1 139.6357 41.022)">e</text><text font-family="'MyriadPro-Regular'" font-size="12" transform="matrix(1 0 0 1 145.6479 41.022)">l</text><text font-family="'MyriadPro-Regular'" font-size="12" transform="matrix(1 0 0 1 179.314 41.022)">F</text><text font-family="'MyriadPro-Regular'" font-size="12" transform="matrix(1 0 0 1 184.7383 41.022)">u</text><text font-family="'MyriadPro-Regular'" font-size="12" transform="matrix(1 0 0 1 191.3501 41.022)">l</text><text font-family="'MyriadPro-Regular'" font-size="12" transform="matrix(1 0 0 1 194.1821 41.022)">l</text><text font-family="'MyriadPro-Regular'" font-size="12" transform="matrix(1 0 0 1 199.5576 41.022)">w</text><text font-family="'MyriadPro-Regular'" font-size="12" transform="matrix(1 0 0 1 208.3896 41.022)">i</text><text font-family="'MyriadPro-Regular'" font-size="12" transform="matrix(1 0 0 1 211.1978 41.022)">t</text><text font-family="'MyriadPro-Regular'" font-size="12" transform="matrix(1 0 0 1 215.1694 41.022)">h</text><text font-family="'MyriadPro-Regular'" font-size="12" transform="matrix(1 0 0 1 221.8301 41.022)">o</text><text font-family="'MyriadPro-Regular'" font-size="12" transform="matrix(1 0 0 1 228.418 41.022)">u</text><text font-family="'MyriadPro-Regular'" font-size="12" transform="matrix(1 0 0 1 235.0293 41.022)">t</text><text font-family="'MyriadPro-Regular'" font-size="12" transform="matrix(1 0 0 1 241.5449 41.022)">P</text><text font-family="'MyriadPro-Regular'" font-size="12" transform="matrix(1 0 0 1 247.7363 41.022)">r</text><text font-family="'MyriadPro-Regular'" font-size="12" transform="matrix(1 0 0 1 251.541 41.022)">e</text><text font-family="'MyriadPro-Regular'" font-size="12" transform="matrix(1 0 0 1 257.5527 41.022)">v</text><text font-family="'MyriadPro-Regular'" font-size="12" transform="matrix(1 0 0 1 263.3242 41.022)">i</text><text font-family="'MyriadPro-Regular'" font-size="12" transform="matrix(1 0 0 1 266.1328 41.022)">e</text><text font-family="'MyriadPro-Regular'" font-size="12" transform="matrix(1 0 0 1 272.1445 41.022)">w</text><text font-family="'MyriadPro-Regular'" font-size="12" transform="matrix(1 0 0 1 311.3633 41.022)">F</text><text font-family="'MyriadPro-Regular'" font-size="12" transform="matrix(1 0 0 1 316.7871 41.022)">u</text><text font-family="'MyriadPro-Regular'" font-size="12" transform="matrix(1 0 0 1 323.3984 41.022)">l</text><text font-family="'MyriadPro-Regular'" font-size="12" transform="matrix(1 0 0 1 326.2305 41.022)">l</text><text font-family="'MyriadPro-Regular'" font-size="12" transform="matrix(1 0 0 1 331.6074 41.022)">w</text><text font-family="'MyriadPro-Regular'" font-size="12" transform="matrix(1 0 0 1 340.4395 41.022)">i</text><text font-family="'MyriadPro-Regular'" font-size="12" transform="matrix(1 0 0 1 343.2461 41.022)">t</text><text font-family="'MyriadPro-Regular'" font-size="12" transform="matrix(1 0 0 1 347.2188 41.022)">h</text><text font-family="'MyriadPro-Regular'" font-size="12" transform="matrix(1 0 0 1 356.4219 41.022)">P</text><text font-family="'MyriadPro-Regular'" font-size="12" transform="matrix(1 0 0 1 362.6133 41.022)">r</text><text font-family="'MyriadPro-Regular'" font-size="12" transform="matrix(1 0 0 1 366.418 41.022)">e</text><text font-family="'MyriadPro-Regular'" font-size="12" transform="matrix(1 0 0 1 372.4297 41.022)">v</text><text font-family="'MyriadPro-Regular'" font-size="12" transform="matrix(1 0 0 1 378.2012 41.022)">i</text><text font-family="'MyriadPro-Regular'" font-size="12" transform="matrix(1 0 0 1 381.0098 41.022)">e</text><text font-family="'MyriadPro-Regular'" font-size="12" transform="matrix(1 0 0 1 387.0215 41.022)">w</text></g><g><text font-family="'MyriadPro-Regular'" font-size="12" transform="matrix(1 0 0 1 24.6455 110.8218)">L</text><text font-family="'MyriadPro-Regular'" font-size="12" transform="matrix(1 0 0 1 30.3096 110.8218)">i</text><text font-family="'MyriadPro-Regular'" font-size="12" transform="matrix(1 0 0 1 33.1172 110.8218)">v</text><text font-family="'MyriadPro-Regular'" font-size="12" transform="matrix(1 0 0 1 38.769 110.8218)">e</text><text font-family="'MyriadPro-Regular'" font-size="12" transform="matrix(1 0 0 1 47.3252 110.8218)">P</text><text font-family="'MyriadPro-Regular'" font-size="12" transform="matrix(1 0 0 1 53.5171 110.8218)">r</text><text font-family="'MyriadPro-Regular'" font-size="12" transform="matrix(1 0 0 1 57.3213 110.8218)">e</text><text font-family="'MyriadPro-Regular'" font-size="12" transform="matrix(1 0 0 1 63.333 110.8218)">v</text><text font-family="'MyriadPro-Regular'" font-size="12" transform="matrix(1 0 0 1 69.105 110.8218)">i</text><text font-family="'MyriadPro-Regular'" font-size="12" transform="matrix(1 0 0 1 71.9126 110.8218)">e</text><text font-family="'MyriadPro-Regular'" font-size="12" transform="matrix(1 0 0 1 77.9248 110.8218)">w</text><text font-family="'MyriadPro-Regular'" font-size="12" transform="matrix(1 0 0 1 106.6455 110.8218)">S</text><text font-family="'MyriadPro-Regular'" font-size="12" transform="matrix(1 0 0 1 112.5615 110.8218)">l</text><text font-family="'MyriadPro-Regular'" font-size="12" transform="matrix(1 0 0 1 115.3936 110.8218)">i</text><text font-family="'MyriadPro-Regular'" font-size="12" transform="matrix(1 0 0 1 118.2012 110.8218)">d</text><text font-family="'MyriadPro-Regular'" font-size="12" transform="matrix(1 0 0 1 124.9697 110.8218)">i</text><text font-family="'MyriadPro-Regular'" font-size="12" transform="matrix(1 0 0 1 127.7773 110.8218)">n</text><text font-family="'MyriadPro-Regular'" font-size="12" transform="matrix(1 0 0 1 134.4375 110.8218)">g</text><text font-family="'MyriadPro-Regular'" font-size="12" transform="matrix(1 0 0 1 143.6885 110.8218)">P</text><text font-family="'MyriadPro-Regular'" font-size="12" transform="matrix(1 0 0 1 149.7607 110.8218)">a</text><text font-family="'MyriadPro-Regular'" font-size="12" transform="matrix(1 0 0 1 155.5449 110.8218)">n</text><text font-family="'MyriadPro-Regular'" font-size="12" transform="matrix(1 0 0 1 162.2051 110.8218)">e</text><text font-family="'MyriadPro-Regular'" font-size="12" transform="matrix(1 0 0 1 168.2168 110.8218)">l</text><text font-family="'MyriadPro-Regular'" font-size="12" transform="matrix(1 0 0 1 203.6196 110.8218)">UI Options</text><text font-family="'MyriadPro-Regular'" font-size="12" transform="matrix(1 0 0 1 333.8926 107.8218)">P</text><text font-family="'MyriadPro-Regular'" font-size="12" transform="matrix(1 0 0 1 340.085 107.8218)">r</text><text font-family="'MyriadPro-Regular'" font-size="12" transform="matrix(1 0 0 1 343.8887 107.8218)">e</text><text font-family="'MyriadPro-Regular'" font-size="12" transform="matrix(1 0 0 1 349.9004 107.8218)">v</text><text font-family="'MyriadPro-Regular'" font-size="12" transform="matrix(1 0 0 1 355.6729 107.8218)">i</text><text font-family="'MyriadPro-Regular'" font-size="12" transform="matrix(1 0 0 1 358.4805 107.8218)">e</text><text font-family="'MyriadPro-Regular'" font-size="12" transform="matrix(1 0 0 1 364.4922 107.8218)">w</text></g><g><text font-family="'MyriadPro-Regular'" font-size="12" transform="matrix(1 0 0 1 190.8579 186.022)">L</text><text font-family="'MyriadPro-Regular'" font-size="12" transform="matrix(1 0 0 1 196.522 186.022)">a</text><text font-family="'MyriadPro-Regular'" font-size="12" transform="matrix(1 0 0 1 202.2095 186.022)">y</text><text font-family="'MyriadPro-Regular'" font-size="12" transform="matrix(1 0 0 1 207.7417 186.022)">o</text><text font-family="'MyriadPro-Regular'" font-size="12" transform="matrix(1 0 0 1 214.3296 186.022)">u</text><text font-family="'MyriadPro-Regular'" font-size="12" transform="matrix(1 0 0 1 220.9414 186.022)">t</text><text font-family="'MyriadPro-Regular'" font-size="12" transform="matrix(1 0 0 1 227.457 186.022)">C</text><text font-family="'MyriadPro-Regular'" font-size="12" transform="matrix(1 0 0 1 234.2852 186.022)">o</text><text font-family="'MyriadPro-Regular'" font-size="12" transform="matrix(1 0 0 1 240.873 186.022)">n</text><text font-family="'MyriadPro-Regular'" font-size="12" transform="matrix(1 0 0 1 247.4844 186.022)">t</text><text font-family="'MyriadPro-Regular'" font-size="12" transform="matrix(1 0 0 1 251.457 186.022)">r</text><text font-family="'MyriadPro-Regular'" font-size="12" transform="matrix(1 0 0 1 255.2617 186.022)">o</text><text font-family="'MyriadPro-Regular'" font-size="12" transform="matrix(1 0 0 1 261.8496 186.022)">l</text><text font-family="'MyriadPro-Regular'" font-size="12" transform="matrix(1 0 0 1 264.6816 186.022)">s</text><text font-family="'MyriadPro-Regular'" font-size="12" transform="matrix(1 0 0 1 318.5928 186.022)">L</text><text font-family="'MyriadPro-Regular'" font-size="12" transform="matrix(1 0 0 1 324.2568 186.022)">i</text><text font-family="'MyriadPro-Regular'" font-size="12" transform="matrix(1 0 0 1 327.0645 186.022)">n</text><text font-family="'MyriadPro-Regular'" font-size="12" transform="matrix(1 0 0 1 333.7246 186.022)">k</text><text font-family="'MyriadPro-Regular'" font-size="12" transform="matrix(1 0 0 1 339.3525 186.022)">s</text><text font-family="'MyriadPro-Regular'" font-size="12" transform="matrix(1 0 0 1 346.6484 186.022)">C</text><text font-family="'MyriadPro-Regular'" font-size="12" transform="matrix(1 0 0 1 353.4766 186.022)">o</text><text font-family="'MyriadPro-Regular'" font-size="12" transform="matrix(1 0 0 1 360.0645 186.022)">n</text><text font-family="'MyriadPro-Regular'" font-size="12" transform="matrix(1 0 0 1 366.6758 186.022)">t</text><text font-family="'MyriadPro-Regular'" font-size="12" transform="matrix(1 0 0 1 370.6484 186.022)">r</text><text font-family="'MyriadPro-Regular'" font-size="12" transform="matrix(1 0 0 1 374.4521 186.022)">o</text><text font-family="'MyriadPro-Regular'" font-size="12" transform="matrix(1 0 0 1 381.04 186.022)">l</text><text font-family="'MyriadPro-Regular'" font-size="12" transform="matrix(1 0 0 1 383.8721 186.022)">s</text><text font-family="'MyriadPro-Regular'" font-size="12" transform="matrix(1 0 0 1 75.1357 186.022)">T</text><text font-family="'MyriadPro-Regular'" font-size="12" transform="matrix(1 0 0 1 80.2476 186.022)">e</text><text font-family="'MyriadPro-Regular'" font-size="12" transform="matrix(1 0 0 1 86.2236 186.022)">x</text><text font-family="'MyriadPro-Regular'" font-size="12" transform="matrix(1 0 0 1 91.9355 186.022)">t</text><text font-family="'MyriadPro-Regular'" font-size="12" transform="matrix(1 0 0 1 98.4512 186.022)">C</text><text font-family="'MyriadPro-Regular'" font-size="12" transform="matrix(1 0 0 1 105.2793 186.022)">o</text><text font-family="'MyriadPro-Regular'" font-size="12" transform="matrix(1 0 0 1 111.8672 186.022)">n</text><text font-family="'MyriadPro-Regular'" font-size="12" transform="matrix(1 0 0 1 118.479 186.022)">t</text><text font-family="'MyriadPro-Regular'" font-size="12" transform="matrix(1 0 0 1 122.4512 186.022)">r</text><text font-family="'MyriadPro-Regular'" font-size="12" transform="matrix(1 0 0 1 126.2549 186.022)">o</text><text font-family="'MyriadPro-Regular'" font-size="12" transform="matrix(1 0 0 1 132.8433 186.022)">l</text><text font-family="'MyriadPro-Regular'" font-size="12" transform="matrix(1 0 0 1 135.6748 186.022)">s</text></g></g><g><line x1="106.646" x2="62.105" y1="47.522" y2="94.098" fill="none" stroke="#000" stroke-miterlimit="10"/><g><polygon points="59.51 89.598 57.146 99.285 66.717 96.49"/></g></g><g><line x1="229.728" x2="230.459" y1="114.53" y2="164.847" fill="none" stroke="#000" stroke-miterlimit="10"/><g><polygon points="225.452 163.46 230.563 172.022 235.424 163.315"/></g></g><g><line x1="107.056" x2="124.551" y1="47.714" y2="92.598" fill="none" stroke="#000" stroke-miterlimit="10"/><g><polygon points="119.376 93.05 127.158 99.285 128.667 89.428"/></g></g><g><line x1="106.646" x2="199.286" y1="47.522" y2="95.959" fill="none" stroke="#000" stroke-miterlimit="10"/><g><polygon points="195.683 99.702 205.646 99.285 200.304 90.865"/></g></g><g><line x1="229.311" x2="123.494" y1="114.53" y2="168.75" fill="none" stroke="#000" stroke-miterlimit="10"/><g><polygon points="122.518 163.646 117.107 172.022 127.066 172.522"/></g></g><g><line x1="230.146" x2="230.146" y1="47.446" y2="92.108" fill="none" stroke="#000" stroke-miterlimit="10"/><g><polygon points="225.159 90.649 230.146 99.285 235.132 90.649"/></g></g><g><line x1="353.608" x2="353.608" y1="46.225" y2="92.108" fill="none" stroke="#000" stroke-miterlimit="10"/><g><polygon points="348.622 90.649 353.608 99.285 358.595 90.649"/></g></g><g><line x1="353.651" x2="262.554" y1="46.225" y2="95.852" fill="none" stroke="#000" stroke-miterlimit="10"/><g><polygon points="261.449 90.775 256.252 99.285 266.221 99.532"/></g></g><g><line x1="229.311" x2="350.601" y1="114.53" y2="169.079" fill="none" stroke="#000" stroke-miterlimit="10"/><g><polygon points="347.225 173.028 357.146 172.022 351.315 163.933"/></g></g></g></g></switch></svg>